<svg xmlns="http://www.w3.org/2000/svg" xmlns:xlink="http://www.w3.org/1999/xlink" width="134" height="144.5" viewBox="0 0 134 144.5">
  <defs>
    <clipPath id="clip-path">
      <rect id="Rectangle_38" data-name="Rectangle 38" width="55.617" height="85.732" fill="none"/>
    </clipPath>
  </defs>
  <g id="congrats-icon" transform="translate(-171.061 -332.981)">
    <circle id="Ellipse_166" data-name="Ellipse 166" cx="67" cy="67" r="67" transform="translate(171.061 332.981)" fill="#fbb03b"/>
    <path id="Path_3515" data-name="Path 3515" d="M284.776,491.011H232.058a4.249,4.249,0,0,1-4.248-4.248v-102.3a4.249,4.249,0,0,1,4.248-4.248h52.717a4.249,4.249,0,0,1,4.248,4.248v102.3A4.249,4.249,0,0,1,284.776,491.011Z" transform="translate(-16.281 -13.53)" fill="#242424" opacity="0.19" style="mix-blend-mode: multiply;isolation: isolate"/>
    <path id="Path_3516" data-name="Path 3516" d="M277.5,484.815H226.939a5.324,5.324,0,0,1-5.324-5.324V379.341a5.324,5.324,0,0,1,5.324-5.324H277.5a5.324,5.324,0,0,1,5.324,5.324v100.15A5.324,5.324,0,0,1,277.5,484.815Z" transform="translate(-14.505 -11.755)" fill="#393f40"/>
    <g id="Group_50" data-name="Group 50" transform="translate(209.908 374.413)">
      <g id="Group_49" data-name="Group 49" clip-path="url(#clip-path)">
        <rect id="Rectangle_34" data-name="Rectangle 34" width="55.617" height="85.732" fill="#366"/>
        <g id="Group_48" data-name="Group 48" transform="translate(-11.193 -10.209)" opacity="0.13">
          <rect id="Rectangle_35" data-name="Rectangle 35" width="4.537" height="115.573" transform="translate(52.801) rotate(27.185)" fill="#fff"/>
          <rect id="Rectangle_36" data-name="Rectangle 36" width="11.76" height="115.573" transform="translate(77.38 15.981) rotate(27.185)" fill="#fff"/>
          <rect id="Rectangle_37" data-name="Rectangle 37" width="18.942" height="115.573" transform="translate(59.004 4.003) rotate(27.185)" fill="#fff"/>
        </g>
      </g>
    </g>
    <path id="Path_3517" data-name="Path 3517" d="M267.21,383.817l-10.283.05a.947.947,0,0,1-.952-.949h0a.958.958,0,0,1,.952-.958l10.282-.05a.947.947,0,0,1,.952.948h0A.958.958,0,0,1,267.21,383.817Z" transform="translate(-24.352 -14.017)" fill="#4f6363" opacity="0.77"/>
    <path id="Path_3518" data-name="Path 3518" d="M269.485,520.751,251.6,520.8a.948.948,0,0,1-.952-.949h0a.958.958,0,0,1,.952-.958l17.887-.051a.947.947,0,0,1,.952.949h0A.958.958,0,0,1,269.485,520.751Z" transform="translate(-22.825 -53.259)" fill="#4f6363" opacity="0.77"/>
    <g id="Group_51" data-name="Group 51" transform="translate(211.846 376.482)" opacity="0.12">
      <path id="Path_3519" data-name="Path 3519" d="M233.885,396.024h-4.593a1.038,1.038,0,0,1-1.038-1.038h0a1.039,1.039,0,0,1,1.038-1.038h4.593a1.038,1.038,0,0,1,1.038,1.038h0A1.038,1.038,0,0,1,233.885,396.024Z" transform="translate(-228.254 -393.948)" fill="#f1f1f2"/>
      <path id="Path_3520" data-name="Path 3520" d="M241.193,396.024h-1.566a1.038,1.038,0,0,1-1.038-1.038h0a1.038,1.038,0,0,1,1.038-1.038h1.566a1.038,1.038,0,0,1,1.038,1.038h0A1.038,1.038,0,0,1,241.193,396.024Z" transform="translate(-231.216 -393.948)" fill="#f1f1f2"/>
      <path id="Path_3521" data-name="Path 3521" d="M297.94,396.024h-4.032a1.038,1.038,0,0,1-1.038-1.038h0a1.039,1.039,0,0,1,1.038-1.038h4.032a1.038,1.038,0,0,1,1.038,1.038h0A1.038,1.038,0,0,1,297.94,396.024Z" transform="translate(-246.772 -393.948)" fill="#f1f1f2"/>
    </g>
    <path id="Path_3522" data-name="Path 3522" d="M267.448,477.513H227.656a4.421,4.421,0,0,1-4.292-4.539V410.936a4.421,4.421,0,0,1,4.292-4.539h39.792a4.421,4.421,0,0,1,4.292,4.539v62.038A4.421,4.421,0,0,1,267.448,477.513Z" transform="translate(-15.006 -21.034)" fill="#242424" opacity="0.25" style="mix-blend-mode: multiply;isolation: isolate"/>
    <path id="Path_3523" data-name="Path 3523" d="M215.95,472.479l43.875-.006a3.987,3.987,0,0,0,3.987-3.987V409.4c0-3.832,2.235-6.939,6.3-6.939h-50.08a7.157,7.157,0,0,0-7.355,6.939v56.161l0,3.648A3.273,3.273,0,0,0,215.95,472.479Z" transform="translate(-11.943 -19.905)" fill="#f2f2f2"/>
    <g id="Group_52" data-name="Group 52" transform="translate(207.829 395.127)">
      <path id="Path_3524" data-name="Path 3524" d="M223.622,431.226h35.553a1,1,0,1,0,0-2H223.622a1,1,0,1,0,0,2Z" transform="translate(-222.623 -422.704)" fill="#a3bbc4"/>
      <path id="Path_3525" data-name="Path 3525" d="M259.175,436.046H223.622a1,1,0,1,0,0,2h35.553a1,1,0,0,0,0-2Z" transform="translate(-222.623 -424.658)" fill="#a3bbc4"/>
      <path id="Path_3526" data-name="Path 3526" d="M259.175,442.863H223.622a1,1,0,1,0,0,2h35.553a1,1,0,0,0,0-2Z" transform="translate(-222.623 -426.611)" fill="#a3bbc4"/>
      <path id="Path_3527" data-name="Path 3527" d="M259.175,449.681H223.622a1,1,0,1,0,0,2h35.553a1,1,0,1,0,0-2Z" transform="translate(-222.623 -428.565)" fill="#a3bbc4"/>
      <path id="Path_3528" data-name="Path 3528" d="M259.175,456.5H223.622a1,1,0,1,0,0,2h35.553a1,1,0,0,0,0-2Z" transform="translate(-222.623 -430.519)" fill="#a3bbc4"/>
      <path id="Path_3529" data-name="Path 3529" d="M259.175,463.315H223.622a1,1,0,1,0,0,2h35.553a1,1,0,1,0,0-2Z" transform="translate(-222.623 -432.472)" fill="#a3bbc4"/>
      <path id="Path_3530" data-name="Path 3530" d="M259.175,470.133H223.622a1,1,0,1,0,0,2h35.553a1,1,0,0,0,0-2Z" transform="translate(-222.623 -434.426)" fill="#a3bbc4"/>
      <path id="Path_3531" data-name="Path 3531" d="M249.048,476.95H223.622a1,1,0,1,0,0,2h25.426a1,1,0,0,0,0-2Z" transform="translate(-222.623 -436.38)" fill="#a3bbc4"/>
      <path id="Path_3532" data-name="Path 3532" d="M237.51,422.081h18.52a1,1,0,0,0,0-2H237.51a1,1,0,1,0,0,2Z" transform="translate(-226.603 -420.083)" fill="#a3bbc4"/>
    </g>
    <g id="Group_53" data-name="Group 53" transform="translate(228.421 423.977)">
      <circle id="Ellipse_167" data-name="Ellipse 167" cx="16.237" cy="16.237" r="16.237" transform="translate(1.699 36.174) rotate(-80.783)" fill="#32cc91" opacity="0.25" style="mix-blend-mode: multiply;isolation: isolate"/>
      <circle id="Ellipse_168" data-name="Ellipse 168" cx="16.237" cy="16.237" r="16.237" transform="translate(0 31.738) rotate(-77.778)" fill="#32cc91"/>
      <path id="Path_3533" data-name="Path 3533" d="M271.482,490.774l-4.917-4.61a2.5,2.5,0,0,1,0-3.65h0a2.5,2.5,0,0,1,3.422,0L272.644,485a.8.8,0,0,0,1.1,0l7.623-7.146a2.5,2.5,0,0,1,3.422,0h0a2.5,2.5,0,0,1,0,3.651l-9.883,9.264A2.5,2.5,0,0,1,271.482,490.774Z" transform="translate(-255.582 -465.297)" fill="#fff"/>
    </g>
    <g id="Group_54" data-name="Group 54" transform="translate(265.54 354.403)">
      <path id="Path_3534" data-name="Path 3534" d="M311.919,366.917l-2.779,2.779a.435.435,0,0,0,0,.614.446.446,0,0,0,.614,0l2.779-2.779a.434.434,0,0,0-.614-.614Z" transform="translate(-305.092 -364.086)" fill="#fff"/>
      <path id="Path_3535" data-name="Path 3535" d="M304.385,366.872v-3.437a.434.434,0,1,0-.868,0v3.437a.434.434,0,1,0,.868,0Z" transform="translate(-303.517 -363)" fill="#fff"/>
      <path id="Path_3536" data-name="Path 3536" d="M312.312,377.047h3.438a.434.434,0,1,0,0-.868h-3.438a.434.434,0,0,0,0,.868Z" transform="translate(-305.913 -366.777)" fill="#fff"/>
    </g>
  </g>
</svg>
