<svg xmlns="http://www.w3.org/2000/svg" xmlns:xlink="http://www.w3.org/1999/xlink" width="97.644" height="19.667" viewBox="0 0 97.644 19.667">
  <defs>
    <linearGradient id="linear-gradient" x1="-0.22" y1="1.585" x2="0.599" y2="0.324" gradientUnits="objectBoundingBox">
      <stop offset="0" stop-color="#231f20"/>
      <stop offset="1" stop-color="lime"/>
    </linearGradient>
    <radialGradient id="radial-gradient" cx="0.278" cy="0.229" r="0.598" gradientTransform="matrix(0.944, 0.845, -1.11, 0.399, 0.27, -0.097)" gradientUnits="objectBoundingBox">
      <stop offset="0" stop-color="lime"/>
      <stop offset="1" stop-color="#006838"/>
    </radialGradient>
  </defs>
  <g id="logo" transform="translate(10572 10059.517)">
    <g id="Group_5" data-name="Group 5" transform="translate(-10553.92 -10059.517)">
      <g id="Group_4" data-name="Group 4" transform="translate(0)">
        <path id="Path_3" data-name="Path 3" d="M295.489,204.984a3.276,3.276,0,0,1,.545-.109c.1,0,.163.1.2.291a3.3,3.3,0,0,1-.745.945q-.8.727-.891.818a25.21,25.21,0,0,0-1.963,2.145,3.352,3.352,0,0,0,.309,5.089l2.49,2.581q1.327,1.382,1.327,1.909-.073.146-.327.145a6.006,6.006,0,0,1-3.508-1.654,18.2,18.2,0,0,1-2.8-2.835,19.2,19.2,0,0,1-2.817,2.872,5.957,5.957,0,0,1-3.526,1.618q-.346,0-.345-.145,0-.527,1.327-1.909,2.326-2.4,2.472-2.581a4.486,4.486,0,0,0,1.327-2.563,4.386,4.386,0,0,0-1.018-2.581,23.325,23.325,0,0,0-1.926-2.09q-.455-.418-.909-.818a3.647,3.647,0,0,1-.745-.945q.054-.29.218-.291a4.287,4.287,0,0,1,.527.109q2.835.672,5.453,4.181Q292.689,205.675,295.489,204.984Z" transform="translate(-283.438 -203.856)" fill="#181a21"/>
        <path id="Path_4" data-name="Path 4" d="M347.072,227.113a2.057,2.057,0,0,0-.272.709q-.291.018-.327-.382a2.106,2.106,0,0,0-.127-.763q-.2-.436-.909-.436a4.766,4.766,0,0,0-3.108.963,3.518,3.518,0,0,0-1.29,2.908,1.9,1.9,0,0,0,.545,1.39,1.856,1.856,0,0,0,1.382.554,4.212,4.212,0,0,0,2.108-.591,4.487,4.487,0,0,0,1.618-1.518q.054-.145.227-1.118a3.166,3.166,0,0,1,.772-1.627q.309-.327.473-.327c.1,0,.145.067.145.2a9.921,9.921,0,0,1-.363,1.781,7.486,7.486,0,0,1-2.108,3.708,5.631,5.631,0,0,1-3.926,1.508,2.717,2.717,0,0,1-2.981-2.981,5.845,5.845,0,0,1,1.69-4.253,5.661,5.661,0,0,1,4.217-1.727,4.721,4.721,0,0,1,1.563.236q.945.327.945,1.054A2.051,2.051,0,0,1,347.072,227.113Z" transform="translate(-325.225 -219.097)" fill="#181a21"/>
        <path id="Path_5" data-name="Path 5" d="M383.454,233.669q0-.327-1.309-1l-2.436-1.254q-1.309-.782-1.308-1.363,0-1.218,2.672-1.927a14.325,14.325,0,0,1,3.653-.509q2.017,0,2.017.436,0,.273-.563.364-4.653.709-4.653,1.709,0,.382,1.436,1.127.909.436,2.69,1.345,1.435.763,1.436,1.381,0,1.127-3.126,1.708a22.433,22.433,0,0,1-4.071.382q-2.491,0-2.472-.454l.018-.073q.054-.255,1.618-.545l2.854-.545Q383.454,234.086,383.454,233.669Z" transform="translate(-354.21 -220.981)" fill="#181a21"/>
        <path id="Path_6" data-name="Path 6" d="M426.229,206.167a2.09,2.09,0,0,1,.654.163,2.4,2.4,0,0,1,.618.309q.491.382.636.527a2.514,2.514,0,0,1,.545.654,14.916,14.916,0,0,1,1.29,3.035,12.354,12.354,0,0,1,.4,3.272q0,1.527-.363,1.527-.291,0-.382-.364-.037-.2-.127-.6a12.9,12.9,0,0,0-1.163-3.454,3.167,3.167,0,0,0-2.781-1.927,1.477,1.477,0,0,0-.609.2,2.322,2.322,0,0,0-.573.382,4.154,4.154,0,0,0-1.018,1.781q-.127.4-.527,2.017l-.145,1.145q-.109.872-.327.872-.382,0-.581-1.545-.019-.363-.145-1.981-.019-1.054-.055-4.835a26.626,26.626,0,0,1,.273-3.926q.382-2.708.891-2.672.454.019.454,4.653v1.418c-.012.085-.018.091-.018.018q.054,1.036.436,1.018A2.752,2.752,0,0,1,426.229,206.167Z" transform="translate(-387.46 -200.75)" fill="#181a21"/>
        <path id="Path_7" data-name="Path 7" d="M463.529,231.8a45.43,45.43,0,0,1,.745-6.689q.109.018.427.918t.7.9a.98.98,0,0,0,.6-.309,3.6,3.6,0,0,1,1.509-1.381,5.138,5.138,0,0,1,1.963-.618c.133-.012.3-.018.509-.018a4.11,4.11,0,0,1,2.581.745,2.852,2.852,0,0,1,1.054,2.4,7,7,0,0,1-.382,2.217,5.031,5.031,0,0,1-1.073,1.945q-.272.291-.563.563a2.779,2.779,0,0,1-.6.436,4.75,4.75,0,0,1-2.272.618q-2,0-1.963-.909l.018-.127a5.083,5.083,0,0,1,.563.109,4.319,4.319,0,0,0,2.972-1.054,3.576,3.576,0,0,0,1.19-2.817,1.9,1.9,0,0,0-.554-1.382,1.85,1.85,0,0,0-1.372-.563q-3.653,0-4.326,6.707-.054.073-.255,2.563-.2,2.327-.563,2.326-.436,0-.709-2.617A39.347,39.347,0,0,1,463.529,231.8Z" transform="translate(-419.053 -218.708)" fill="#181a21"/>
        <path id="Path_8" data-name="Path 8" d="M512.183,211.357a19.787,19.787,0,0,0-.273,3.781,3.671,3.671,0,0,0,.491,1.636q.563,1.091,1.254,1.2a1.741,1.741,0,0,1-1.491.8q-2.563,0-2.563-3.544a9.207,9.207,0,0,1,.345-2.526q.654-2.308.872-2.817a26.829,26.829,0,0,1,1.618-3.235,15.89,15.89,0,0,1,.945-1.381q.655-.872.927-.909a.315.315,0,0,1,.055.218,15.212,15.212,0,0,1-.782,2.181q-.491,1.345-.618,1.818Q512.256,211.029,512.183,211.357Z" transform="translate(-453.748 -203.468)" fill="#181a21"/>
        <path id="Path_9" data-name="Path 9" d="M536.9,228.4a22.122,22.122,0,0,1,.509,3.344,1.107,1.107,0,0,1-.273.854q-.127-.018-.536-1.036t-.736-1.018a.709.709,0,0,0-.4.236,2.582,2.582,0,0,0-.436.409,2.409,2.409,0,0,1-.473.427,7.336,7.336,0,0,1-3.726,1.018,2.717,2.717,0,0,1-2.981-2.981,6.2,6.2,0,0,1,.745-3.008,5.27,5.27,0,0,1,2.127-2.136,4.378,4.378,0,0,1,1.908-.672,2.176,2.176,0,0,1,1.6.472q.218.309.454.6l-.6-.109a4.237,4.237,0,0,0-2.927,1.036,3.653,3.653,0,0,0-1.2,2.835,1.9,1.9,0,0,0,.545,1.39,1.855,1.855,0,0,0,1.381.554,4.221,4.221,0,0,0,1.618-.354,3.224,3.224,0,0,0,1.309-.918,4.294,4.294,0,0,0,.254-1.382q0-.218-.045-.672t-.045-.672a6.99,6.99,0,0,1,.254-2.018q.382-1.272,1.254-1.4.272.109.272.291a4.9,4.9,0,0,1-.145.654,3.805,3.805,0,0,0-.145.891A18.494,18.494,0,0,0,536.9,228.4Z" transform="translate(-467.491 -217.656)" fill="#181a21"/>
        <path id="Path_10" data-name="Path 10" d="M571.559,233.821q.309-.672.654-1.363a1.331,1.331,0,0,0,.164-.582,2.17,2.17,0,0,0-.672-1.29q-1.127-1.272-1.236-1.436a5.829,5.829,0,0,1-1.254-2.726.677.677,0,0,1,.018-.164.164.164,0,0,1,.073-.018q.164,0,.927.818a13.211,13.211,0,0,0,1.981,1.727,2.246,2.246,0,0,0,1.4.527,2.561,2.561,0,0,0,1.327-.782q.873-.8,1.054-.963,1.727-1.654,2.2-1.581.073.236-.463.945t-.827,1.054q-.782,1.054-1.036,1.49-.527.945-1.308,2.418a12.521,12.521,0,0,0-.727,1.727q-.091.272-.581,1.8a4.129,4.129,0,0,0-.164,1.254q0,1.272.582,1.581a1.745,1.745,0,0,1-1.2.418.8.8,0,0,1-.254-.037,1.958,1.958,0,0,1-1.327-2.108A6.665,6.665,0,0,1,571.559,233.821Z" transform="translate(-498.638 -219.753)" fill="#181a21"/>
      </g>
    </g>
    <g id="Group_8" data-name="Group 8" transform="translate(-10572 -10058.837)">
      <path id="Path_11" data-name="Path 11" d="M292.735,291.588c-.058,0-.117-.007-.175-.014s-.117-.016-.175-.028c-.03-.005-.06-.012-.088-.019a2.456,2.456,0,0,1-.844-.392,2.494,2.494,0,0,1-.992-1.571c-.012-.07-.023-.14-.03-.212,0-.032-.005-.063-.007-.094a2.37,2.37,0,0,1,.016-.387,2.6,2.6,0,0,1,.052-.289c.005-.023.011-.044.017-.066a2.143,2.143,0,0,1,.268-.565c.173-.257.35-.513.534-.765l.009-.014,1.789-2.307c.245-.3.483-.6.705-.91l.023-.032a8.639,8.639,0,0,0,1.547-3.369,4.862,4.862,0,0,0-.312-3.012c-.219-.485-.521-.929-.781-1.379,0,0,1.939,1.092,3.861,2.191l1.636.933,3.518,2.009a2.656,2.656,0,0,1,1.008,1.024c.028.051.054.1.08.156.016.037.033.075.049.114a1.746,1.746,0,0,1,.081.219c.014.042.028.084.038.126.007.024.014.052.021.077,0,.005,0,.009,0,.014a.036.036,0,0,1,0,.019c.014.056.019.108.03.161s.018.086.019.128a.381.381,0,0,1,.005.061.351.351,0,0,0,0,.061c0,.058.011.117.011.175v.017c0,.058-.007.116-.011.173,0,.04,0,.08-.009.122s-.014.084-.019.128c-.01.06-.019.119-.033.18,0,0,0,.009,0,.014-.012.045-.023.086-.033.128s-.028.086-.042.128-.031.084-.047.126a.636.636,0,0,1-.031.077c-.014.033-.03.066-.047.1a2.022,2.022,0,0,1-.133.233,2.635,2.635,0,0,1-.943.922c-.472.269-1.244.714-2.145,1.227l-.52.3c-.177.1-.359.2-.539.308l-.366.208-.373.213-1.663.947c-1.318.754-2.49,1.421-3.061,1.743-.047.024-.093.051-.14.08-.105.058-.175.1-.208.117,0,0,.005-.005.005-.009l-.186.108A2.522,2.522,0,0,1,292.735,291.588Z" transform="translate(-290.423 -275.688)" fill="url(#linear-gradient)"/>
      <g id="Group_7" data-name="Group 7" transform="translate(0.001)">
        <path id="Path_12" data-name="Path 12" d="M294.116,274.41c.053.033.117.067.18.105.258.45.561.894.78,1.38a4.856,4.856,0,0,1,.311,3.012,9.457,9.457,0,0,1-2.085,4.075,1.714,1.714,0,0,0,.264-.661c.008-.04.014-.08.018-.12v0a1.75,1.75,0,0,0-.372-1.3l-.142-.172c-.8-.977-1.585-1.988-2.29-3.037a2.382,2.382,0,0,1,.675-3.19A2.351,2.351,0,0,1,294.116,274.41Z" transform="translate(-290.427 -274.04)" fill="url(#radial-gradient)"/>
      </g>
    </g>
  </g>
</svg>
