<svg xmlns="http://www.w3.org/2000/svg" xmlns:xlink="http://www.w3.org/1999/xlink" width="134" height="144.5" viewBox="0 0 134 144.5">
  <defs>
    <clipPath id="clip-path">
      <rect id="Rectangle_38" data-name="Rectangle 38" width="55.617" height="85.732" fill="none"/>
    </clipPath>
  </defs>
  <g id="sorry-icon" transform="translate(-4677 -74)">
    <circle id="Ellipse_166" data-name="Ellipse 166" cx="67" cy="67" r="67" transform="translate(4677 74)" fill="#fbb03b"/>
    <path id="Path_3515" data-name="Path 3515" d="M284.776,491.011H232.058a4.249,4.249,0,0,1-4.248-4.248v-102.3a4.249,4.249,0,0,1,4.248-4.248h52.717a4.249,4.249,0,0,1,4.248,4.248v102.3A4.249,4.249,0,0,1,284.776,491.011Z" transform="translate(4489.658 -272.511)" fill="#242424" opacity="0.19" style="mix-blend-mode: multiply;isolation: isolate"/>
    <path id="Path_3516" data-name="Path 3516" d="M277.5,484.815H226.939a5.324,5.324,0,0,1-5.324-5.324V379.341a5.324,5.324,0,0,1,5.324-5.324H277.5a5.324,5.324,0,0,1,5.324,5.324v100.15A5.324,5.324,0,0,1,277.5,484.815Z" transform="translate(4491.433 -270.736)" fill="#393f40"/>
    <g id="Group_49" data-name="Group 49" transform="translate(4715.846 115.432)" clip-path="url(#clip-path)">
      <rect id="Rectangle_34" data-name="Rectangle 34" width="55.617" height="85.732" fill="#366"/>
      <g id="Group_48" data-name="Group 48" transform="translate(-11.193 -10.209)" opacity="0.13">
        <rect id="Rectangle_35" data-name="Rectangle 35" width="4.537" height="115.573" transform="translate(52.801) rotate(27.185)" fill="#fff"/>
        <rect id="Rectangle_36" data-name="Rectangle 36" width="11.76" height="115.573" transform="translate(77.38 15.981) rotate(27.185)" fill="#fff"/>
        <rect id="Rectangle_37" data-name="Rectangle 37" width="18.942" height="115.573" transform="translate(59.004 4.003) rotate(27.185)" fill="#fff"/>
      </g>
    </g>
    <path id="Path_3517" data-name="Path 3517" d="M267.21,383.817l-10.283.05a.947.947,0,0,1-.952-.949h0a.958.958,0,0,1,.952-.958l10.282-.05a.947.947,0,0,1,.952.948h0A.958.958,0,0,1,267.21,383.817Z" transform="translate(4481.586 -272.998)" fill="#4f6363" opacity="0.77"/>
    <path id="Path_3518" data-name="Path 3518" d="M269.485,520.751,251.6,520.8a.948.948,0,0,1-.952-.949h0a.958.958,0,0,1,.952-.958l17.887-.051a.947.947,0,0,1,.952.949h0A.958.958,0,0,1,269.485,520.751Z" transform="translate(4483.113 -312.24)" fill="#4f6363" opacity="0.77"/>
    <path id="Path_3519" data-name="Path 3519" d="M233.885,396.024h-4.593a1.038,1.038,0,0,1-1.038-1.038h0a1.039,1.039,0,0,1,1.038-1.038h4.593a1.038,1.038,0,0,1,1.038,1.038h0A1.038,1.038,0,0,1,233.885,396.024Z" transform="translate(4489.531 -276.448)" fill="#f1f1f2"/>
    <path id="Path_3520" data-name="Path 3520" d="M241.193,396.024h-1.566a1.038,1.038,0,0,1-1.038-1.038h0a1.038,1.038,0,0,1,1.038-1.038h1.566a1.038,1.038,0,0,1,1.038,1.038h0A1.038,1.038,0,0,1,241.193,396.024Z" transform="translate(4486.569 -276.448)" fill="#f1f1f2"/>
    <path id="Path_3521" data-name="Path 3521" d="M297.94,396.024h-4.032a1.038,1.038,0,0,1-1.038-1.038h0a1.039,1.039,0,0,1,1.038-1.038h4.032a1.038,1.038,0,0,1,1.038,1.038h0A1.038,1.038,0,0,1,297.94,396.024Z" transform="translate(4471.013 -276.448)" fill="#f1f1f2"/>
    <path id="Path_3522" data-name="Path 3522" d="M267.448,477.513H227.656a4.421,4.421,0,0,1-4.292-4.539V410.936a4.421,4.421,0,0,1,4.292-4.539h39.792a4.421,4.421,0,0,1,4.292,4.539v62.038A4.421,4.421,0,0,1,267.448,477.513Z" transform="translate(4490.932 -280.015)" fill="#242424" opacity="0.25" style="mix-blend-mode: multiply;isolation: isolate"/>
    <path id="Path_3523" data-name="Path 3523" d="M215.95,472.479l43.875-.006a3.987,3.987,0,0,0,3.987-3.987V409.4c0-3.832,2.235-6.939,6.3-6.939h-50.08a7.157,7.157,0,0,0-7.355,6.939v56.161l0,3.648A3.273,3.273,0,0,0,215.95,472.479Z" transform="translate(4493.996 -278.886)" fill="#f2f2f2"/>
    <path id="Path_3524" data-name="Path 3524" d="M223.622,431.226h35.553a1,1,0,1,0,0-2H223.622a1,1,0,1,0,0,2Z" transform="translate(4491.145 -286.558)" fill="#a3bbc4"/>
    <path id="Path_3525" data-name="Path 3525" d="M259.175,436.046H223.622a1,1,0,1,0,0,2h35.553a1,1,0,0,0,0-2Z" transform="translate(4491.145 -288.512)" fill="#a3bbc4"/>
    <path id="Path_3526" data-name="Path 3526" d="M259.175,442.863H223.622a1,1,0,1,0,0,2h35.553a1,1,0,0,0,0-2Z" transform="translate(4491.145 -290.466)" fill="#a3bbc4"/>
    <path id="Path_3527" data-name="Path 3527" d="M259.175,449.681H223.622a1,1,0,1,0,0,2h35.553a1,1,0,1,0,0-2Z" transform="translate(4491.145 -292.419)" fill="#a3bbc4"/>
    <path id="Path_3528" data-name="Path 3528" d="M259.175,456.5H223.622a1,1,0,1,0,0,2h35.553a1,1,0,0,0,0-2Z" transform="translate(4491.145 -294.373)" fill="#a3bbc4"/>
    <path id="Path_3529" data-name="Path 3529" d="M259.175,463.315H223.622a1,1,0,1,0,0,2h35.553a1,1,0,1,0,0-2Z" transform="translate(4491.145 -296.327)" fill="#a3bbc4"/>
    <path id="Path_3530" data-name="Path 3530" d="M259.175,470.133H223.622a1,1,0,1,0,0,2h35.553a1,1,0,0,0,0-2Z" transform="translate(4491.145 -298.281)" fill="#a3bbc4"/>
    <path id="Path_3531" data-name="Path 3531" d="M249.048,476.95H223.622a1,1,0,1,0,0,2h25.426a1,1,0,0,0,0-2Z" transform="translate(4491.145 -300.234)" fill="#a3bbc4"/>
    <path id="Path_3532" data-name="Path 3532" d="M237.51,422.081h18.52a1,1,0,0,0,0-2H237.51a1,1,0,1,0,0,2Z" transform="translate(4487.165 -283.937)" fill="#a3bbc4"/>
    <circle id="Ellipse_167" data-name="Ellipse 167" cx="16.237" cy="16.237" r="16.237" transform="translate(4736.059 201.17) rotate(-80.783)" fill="#32cc91" opacity="0.25" style="mix-blend-mode: multiply;isolation: isolate"/>
    <circle id="Ellipse_168" data-name="Ellipse 168" cx="16.237" cy="16.237" r="16.237" transform="translate(4734.36 196.735) rotate(-77.778)" fill="#e51b1b"/>
    <path id="Path_3534" data-name="Path 3534" d="M311.919,366.917l-2.779,2.779a.435.435,0,0,0,0,.614.446.446,0,0,0,.614,0l2.779-2.779a.434.434,0,0,0-.614-.614Z" transform="translate(4466.387 -268.665)" fill="#fff"/>
    <path id="Path_3535" data-name="Path 3535" d="M304.385,366.872v-3.437a.434.434,0,1,0-.868,0v3.437a.434.434,0,1,0,.868,0Z" transform="translate(4467.961 -267.578)" fill="#fff"/>
    <path id="Path_3536" data-name="Path 3536" d="M312.312,377.047h3.438a.434.434,0,1,0,0-.868h-3.438a.434.434,0,0,0,0,.868Z" transform="translate(4465.565 -271.355)" fill="#fff"/>
    <g id="Group_56" data-name="Group 56" transform="translate(1168.771 3385.455) rotate(-45)">
      <rect id="Rectangle_40" data-name="Rectangle 40" width="19.868" height="5.302" rx="2.651" transform="translate(4787.976 268.766)" fill="#fff"/>
      <rect id="Rectangle_41" data-name="Rectangle 41" width="19.868" height="5.302" rx="2.651" transform="translate(4800.619 261.542) rotate(90)" fill="#fff"/>
    </g>
  </g>
</svg>
