<svg xmlns="http://www.w3.org/2000/svg" width="15.804" height="16.667" viewBox="0 0 15.804 16.667">
  <g id="back_to-top" transform="translate(26.265) rotate(90)">
    <g id="arrow-back" transform="translate(0 10.457)">
      <path id="Path_2766" data-name="Path 2766" d="M15.625,17.321H3.958l5.1-5.1a1.031,1.031,0,0,0,0-1.458h0a1.031,1.031,0,0,0-1.458,0L0,18.363l7.6,7.6a1.031,1.031,0,0,0,1.458,0h0a1.031,1.031,0,0,0,0-1.458l-5.1-5.1H15.625a1.042,1.042,0,0,0,1.042-1.042h0a1.042,1.042,0,0,0-1.042-1.042Z" transform="translate(0 -10.457)" fill="#21242e"/>
    </g>
  </g>
</svg>
