<svg xmlns="http://www.w3.org/2000/svg" width="28.1" height="25" viewBox="0 0 28.1 25">
  <path id="heart-red" d="M14.05,472a1.646,1.646,0,0,1-1.087-.409c-1.135-.992-2.23-1.925-3.2-2.748l0,0a59.454,59.454,0,0,1-6.976-6.548A10.462,10.462,0,0,1,0,455.445a8.78,8.78,0,0,1,2.229-6A7.555,7.555,0,0,1,7.85,447a7.069,7.069,0,0,1,4.415,1.524,9.05,9.05,0,0,1,1.785,1.864,9.032,9.032,0,0,1,1.785-1.864A7.069,7.069,0,0,1,20.25,447a7.555,7.555,0,0,1,5.621,2.447,8.783,8.783,0,0,1,2.229,6,10.459,10.459,0,0,1-2.787,6.846,59.384,59.384,0,0,1-6.976,6.548c-.967.824-2.063,1.759-3.2,2.754A1.649,1.649,0,0,1,14.05,472Z" transform="translate(0 -447)" fill="#ff2c2c"/>
</svg>
