<svg xmlns="http://www.w3.org/2000/svg" width="28.1" height="25" viewBox="0 0 28.1 25">
  <g id="heart-black" transform="translate(0 -447)" fill="none">
    <path d="M14.05,472a1.646,1.646,0,0,1-1.087-.409c-1.135-.992-2.23-1.925-3.2-2.748l0,0a59.454,59.454,0,0,1-6.976-6.548A10.462,10.462,0,0,1,0,455.445a8.78,8.78,0,0,1,2.229-6A7.555,7.555,0,0,1,7.85,447a7.069,7.069,0,0,1,4.415,1.524,9.05,9.05,0,0,1,1.785,1.864,9.032,9.032,0,0,1,1.785-1.864A7.069,7.069,0,0,1,20.25,447a7.555,7.555,0,0,1,5.621,2.447,8.783,8.783,0,0,1,2.229,6,10.459,10.459,0,0,1-2.787,6.846,59.384,59.384,0,0,1-6.976,6.548c-.967.824-2.063,1.759-3.2,2.754A1.649,1.649,0,0,1,14.05,472Z" stroke="none"/>
    <path d="M 14.05000877380371 471.0000305175781 C 14.20714855194092 471.0000305175781 14.35895919799805 470.9429321289063 14.47765922546387 470.839111328125 C 15.64650917053223 469.8172607421875 16.77878952026367 468.8524780273438 17.69128799438477 468.0749816894531 C 20.4852180480957 465.6939392089844 22.89813804626465 463.6376342773438 24.54291915893555 461.6524963378906 C 26.28747940063477 459.5473327636719 27.10001945495605 457.5748291015625 27.10001945495605 455.4449462890625 C 27.10001945495605 453.3883056640625 26.40237808227539 451.4988708496094 25.13562965393066 450.1247253417969 C 23.87246894836426 448.7545776367188 22.13739967346191 448 20.25002861022949 448 C 18.85465812683105 448 17.57498931884766 448.4424743652344 16.44682884216309 449.3148803710938 C 15.86422920227051 449.7657165527344 15.33046913146973 450.3240051269531 14.86039924621582 450.9741821289063 L 14.05000877380371 452.0950622558594 L 13.2396183013916 450.9741821289063 C 12.77030849456787 450.3250427246094 12.23642921447754 449.7666625976563 11.65343856811523 449.3150939941406 C 10.52502918243408 448.4424743652344 9.245358467102051 448 7.84998893737793 448 C 5.962618827819824 448 4.227548599243164 448.7545776367188 2.964258670806885 450.1248474121094 C 1.697588801383972 451.498291015625 0.9999987483024597 453.3876647949219 0.9999987483024597 455.4449462890625 C 0.9999987483024597 457.5746765136719 1.812568783760071 459.5474243164063 3.557068824768066 461.6531372070313 C 5.201598644256592 463.6372985839844 7.614458560943604 465.6936645507813 10.40831851959229 468.07470703125 L 10.41287899017334 468.0785827636719 L 10.41706848144531 468.0821838378906 L 10.42589855194092 468.0896911621094 C 11.391188621521 468.91259765625 12.48526859283447 469.8452758789063 13.6228084564209 470.8394470214844 C 13.7409086227417 470.9429931640625 13.89261913299561 471.0000305175781 14.05000877380371 471.0000305175781 M 14.05000877380371 472.0000305175781 C 13.64949893951416 472.0000305175781 13.26404857635498 471.8548583984375 12.96349906921387 471.59130859375 C 11.82837867736816 470.5992736816406 10.73365879058838 469.6661071777344 9.768319129943848 468.8431701660156 L 9.763528823852539 468.8390808105469 C 6.932578563690186 466.4264221191406 4.487758636474609 464.3431091308594 2.787138700485229 462.291259765625 C 0.8859087824821472 459.9963684082031 -1.22619633202703e-06 457.8212890625 -1.22619633202703e-06 455.4449462890625 C -1.22619633202703e-06 453.1356811523438 0.7914387583732605 451.0057983398438 2.229158878326416 449.4468994140625 C 3.683998823165894 447.8688354492188 5.679698944091797 447 7.84998893737793 447 C 9.471879005432129 447 10.95752906799316 447.5127868652344 12.26517868041992 448.5240173339844 C 12.92447853088379 449.0347290039063 13.5228385925293 449.6591186523438 14.05000877380371 450.3882751464844 C 14.57717895507813 449.6591186523438 15.17485904693604 449.0347290039063 15.8348388671875 448.5240173339844 C 17.14248847961426 447.5127868652344 18.62813949584961 447 20.25002861022949 447 C 22.42031860351563 447 24.41601943969727 447.8688354492188 25.87085914611816 449.4468994140625 C 27.30789947509766 451.0057983398438 28.10001945495605 453.1356811523438 28.10001945495605 455.4449462890625 C 28.10001945495605 457.8212890625 27.21410942077637 459.9963684082031 25.31288909912109 462.2905883789063 C 23.61225891113281 464.3431091308594 21.16743850708008 466.4264221191406 18.3371696472168 468.8384094238281 C 17.36978912353516 469.6626892089844 16.27368927001953 470.5972290039063 15.13583850860596 471.5919799804688 C 14.83527851104736 471.8548583984375 14.44983863830566 472.0000305175781 14.05000877380371 472.0000305175781 Z" stroke="none" fill="#181a21"/>
  </g>
</svg>
